<svg width="31" height="31" viewBox="0 0 31 31" fill="none" xmlns="http://www.w3.org/2000/svg">
<path d="M14.0848 10.3639C13.7826 10.5654 13.5683 10.8413 13.4146 11.1487C13.1599 11.6581 12.5405 11.8646 12.0311 11.6099C11.5216 11.3552 11.3152 10.7357 11.5699 10.2263C11.8459 9.67429 12.2761 9.09089 12.9407 8.64781C13.6118 8.20042 14.4602 7.9375 15.5001 7.9375C16.4045 7.9375 17.3824 8.2052 18.1598 8.78828C18.9648 9.39201 19.5391 10.3299 19.5391 11.5469C19.5391 12.9677 18.8341 13.9114 18.1274 14.5931C17.8672 14.844 17.5796 15.0843 17.3315 15.2915C17.2606 15.3507 17.1924 15.4076 17.1296 15.4609C16.8786 15.6736 16.6825 15.852 16.5313 16.0225V17.9062C16.5313 18.4758 16.0696 18.9375 15.5001 18.9375C14.9305 18.9375 14.4688 18.4758 14.4688 17.9062V15.8802C14.4688 15.5555 14.5608 15.1873 14.8088 14.8693C15.1098 14.4835 15.4762 14.1587 15.7959 13.8876C15.8833 13.8135 15.9669 13.7437 16.0472 13.6765L16.0486 13.6753C16.2846 13.4781 16.4935 13.3035 16.6955 13.1086C17.2007 12.6213 17.4766 12.179 17.4766 11.5469C17.4766 11.0451 17.2632 10.6939 16.9223 10.4383C16.5539 10.162 16.0279 10 15.5001 10C14.8211 10 14.3805 10.1668 14.0848 10.3639Z" fill="#24292E"/>
<path d="M16.875 22.375C16.875 23.1344 16.2594 23.75 15.5 23.75C14.7406 23.75 14.125 23.1344 14.125 22.375C14.125 21.6156 14.7406 21 15.5 21C16.2594 21 16.875 21.6156 16.875 22.375Z" fill="#24292E"/>
<path fill-rule="evenodd" clip-rule="evenodd" d="M15.5 0.375C7.14669 0.375 0.375 7.14669 0.375 15.5C0.375 23.8533 7.14669 30.625 15.5 30.625C23.8533 30.625 30.625 23.8533 30.625 15.5C30.625 7.14669 23.8533 0.375 15.5 0.375ZM2.4375 15.5C2.4375 8.28578 8.28578 2.4375 15.5 2.4375C22.7142 2.4375 28.5625 8.28578 28.5625 15.5C28.5625 22.7142 22.7142 28.5625 15.5 28.5625C8.28578 28.5625 2.4375 22.7142 2.4375 15.5Z" fill="#24292E"/>
</svg>
