<svg width="15" height="13" viewBox="0 0 15 13" fill="none" xmlns="http://www.w3.org/2000/svg">
<path d="M9.27278 1.56763C10.2905 0.659275 11.9405 0.659275 12.9582 1.56763C13.9759 2.47599 13.9759 3.94872 12.9582 4.85708L10.5567 7.00055C9.539 7.90891 7.88897 7.90891 6.87126 7.00055C6.79645 6.93378 6.72726 6.8641 6.66365 6.79197C6.49403 6.59964 6.18185 6.56646 5.96637 6.71786C5.75089 6.86925 5.71371 7.14789 5.88333 7.34021C5.97117 7.43981 6.06643 7.53571 6.16905 7.62731C7.57458 8.88181 9.85339 8.88181 11.2589 7.62731L13.6604 5.48383C15.066 4.22933 15.066 2.19538 13.6604 0.940877C12.2549 -0.313626 9.9761 -0.313626 8.57057 0.940877L6.58441 2.71363C6.3905 2.8867 6.3905 3.16731 6.58441 3.34038C6.77832 3.51345 7.09271 3.51345 7.28661 3.34038L9.27278 1.56763Z" fill="#24292E"/>
<path d="M4.30741 5.99945C5.32512 5.09109 6.97515 5.09109 7.99286 5.99945C8.06771 6.06625 8.1369 6.13592 8.20048 6.208C8.3701 6.40033 8.68228 6.43351 8.89776 6.28211C9.11323 6.13072 9.15041 5.85208 8.98079 5.65976C8.89292 5.56013 8.79765 5.46425 8.69507 5.37269C7.28954 4.11819 5.01073 4.11819 3.6052 5.37269L1.20368 7.51617C-0.201846 8.77067 -0.201846 10.8046 1.20368 12.0591C2.60921 13.3136 4.88802 13.3136 6.29355 12.0591L8.27969 10.2864C8.4736 10.1133 8.4736 9.83272 8.27969 9.65964C8.08578 9.48657 7.77139 9.48657 7.57748 9.65964L5.59134 11.4324C4.57363 12.3407 2.9236 12.3407 1.90589 11.4324C0.888179 10.524 0.888179 9.05128 1.90589 8.14292L4.30741 5.99945Z" fill="#24292E"/>
</svg>
