<svg width="14" height="14" viewBox="0 0 14 14" fill="none" xmlns="http://www.w3.org/2000/svg">
<path fill-rule="evenodd" clip-rule="evenodd" d="M1.75 1.5C1.6837 1.5 1.62011 1.52634 1.57322 1.57322C1.52634 1.62011 1.5 1.6837 1.5 1.75V9.25C1.5 9.388 1.612 9.5 1.75 9.5H3.75C3.94891 9.5 4.13968 9.579 4.28033 9.7197C4.42098 9.8603 4.5 10.0511 4.5 10.25V12.44L7.22 9.72C7.36052 9.5793 7.55115 9.5002 7.75 9.5H12.25C12.3163 9.5 12.3799 9.4737 12.4268 9.4268C12.4737 9.3799 12.5 9.3163 12.5 9.25V1.75C12.5 1.6837 12.4737 1.62011 12.4268 1.57322C12.3799 1.52634 12.3163 1.5 12.25 1.5H1.75ZM0 1.75C0 0.784 0.784 0 1.75 0H12.25C13.216 0 14 0.784 14 1.75V9.25C14 9.7141 13.8156 10.1592 13.4874 10.4874C13.1592 10.8156 12.7141 11 12.25 11H8.06L5.487 13.573C5.28324 13.7767 5.02367 13.9153 4.74111 13.9715C4.45854 14.0277 4.16567 13.9988 3.8995 13.8886C3.63333 13.7784 3.40581 13.5917 3.24571 13.3522C3.08561 13.1127 3.0001 12.8311 3 12.543V11H1.75C1.28587 11 0.84075 10.8156 0.51256 10.4874C0.18437 10.1592 0 9.7141 0 9.25V1.75Z" fill="#57606A"/>
</svg>
